<svg width="911" height="188" viewBox="0 0 911 188" fill="none" xmlns="http://www.w3.org/2000/svg">
<g clip-path="url(#clip0_2_41)">
<path d="M127.46 20H40.8923C30.9371 20 22.8668 28.0703 22.8668 38.0252V149.637C23.1506 140.175 31.4051 132.881 40.8704 132.881H130.045C131.349 132.881 132.405 133.938 132.405 135.242V24.9452C132.406 22.214 130.191 20 127.46 20Z" fill="#FCD462"/>
<path d="M43.8539 20H40.8926V135.753H43.8539V20Z" fill="#F6C358"/>
<path d="M40.1471 162.733C32.8046 162.733 26.9123 156.402 27.6434 148.912C28.2806 142.384 34.1489 137.602 40.7075 137.602H130.045C131.349 137.602 132.406 136.546 132.406 135.242C132.406 133.938 131.349 132.881 130.045 132.881H40.8704C31.4048 132.881 23.1506 140.175 22.8668 149.637C22.5731 159.427 30.422 167.456 40.1459 167.456H130.045C131.349 167.456 132.406 166.399 132.406 165.095V165.094C132.406 163.79 131.349 162.733 130.045 162.733H40.1471Z" fill="#DC8744"/>
<path d="M27.6434 148.912C26.912 156.402 32.8043 162.734 40.1471 162.734H129.597C125.698 154.356 125.698 145.98 129.597 137.603H40.7075C34.1483 137.603 28.2803 142.385 27.6434 148.912Z" fill="#EBF0F3"/>
<path d="M35.3567 143.335H127.564C127.648 143.003 127.757 142.671 127.854 142.339H35.3567V143.335Z" fill="#E1E6E9"/>
<path d="M35.3567 147H126.86C126.899 146.668 126.983 146.335 127.034 146.004H35.3567V147Z" fill="#E1E6E9"/>
<path d="M35.3567 150.666H126.702C126.695 150.334 126.695 150.002 126.702 149.67H35.3567V150.666Z" fill="#E1E6E9"/>
<path d="M35.3567 154.332H127.034C126.983 154 126.9 153.669 126.86 153.337H35.3567V154.332Z" fill="#E1E6E9"/>
<path d="M35.3567 157.997H127.854C127.757 157.665 127.648 157.333 127.564 157.001H35.3567V157.997Z" fill="#E1E6E9"/>
<path opacity="0.5" d="M96.6711 99.1821C112.259 101.931 127.124 91.5223 129.872 75.9343C132.621 60.3463 122.213 45.4816 106.625 42.733C91.0366 39.9844 76.1719 50.3928 73.4233 65.9808C70.6747 81.5688 81.0831 96.4335 96.6711 99.1821Z" fill="white"/>
<path opacity="0.5" d="M85.5834 85.1886C77.8236 74.1068 80.3724 58.9343 91.2753 51.2998C93.7084 49.5958 96.3566 48.4401 99.0815 47.7515C95.3092 48.1651 91.5845 49.5024 88.2569 51.8324C77.6936 59.2289 75.126 73.7887 82.5221 84.352C85.7974 89.0292 90.4787 92.1306 95.5938 93.5019C91.7129 91.7341 88.2186 88.952 85.5834 85.1886Z" fill="white"/>
<path d="M130.329 50.8776C119.239 35.0379 97.407 31.1884 81.5676 42.2799C65.7282 53.3707 61.8784 75.2019 72.9691 91.042C83.19 105.639 102.521 110.02 117.89 101.944L120.431 105.572L127.751 100.446L125.21 96.8177C138.056 85.1387 140.55 65.4742 130.329 50.8776ZM118.089 94.4372C105.122 103.516 87.2513 100.365 78.1722 87.3988C69.093 74.4325 72.2442 56.5613 85.2105 47.4822C98.1769 38.403 116.048 41.5542 125.127 54.5205C134.206 67.4869 131.055 85.358 118.089 94.4372Z" fill="#3A556A"/>
<path d="M129.836 98.4287L117.822 106.841C117.139 107.319 116.973 108.26 117.451 108.943L148.682 153.546C150.856 156.65 165.342 146.507 163.169 143.402L131.937 98.7993C131.46 98.1166 130.519 97.9507 129.836 98.4287Z" fill="#27A2DB"/>
<path d="M147.381 151.692L161.868 141.549L160.146 139.089L145.659 149.233L147.381 151.692Z" fill="#EBF0F3"/>
<path d="M120.746 113.623L135.233 103.479L133.511 101.02L119.024 111.164L120.746 113.623Z" fill="#EBF0F3"/>
</g>
<path d="M188.36 89.4141V88.5254L188.292 49.082C188.292 47.2135 188.953 45.6185 190.274 44.2969C191.596 42.9753 193.168 42.2917 194.991 42.2461L212.97 41.9043C213.972 41.8587 214.952 41.8359 215.909 41.8359C216.866 41.8359 217.8 41.8359 218.712 41.8359C223.725 41.8359 228.601 42.3828 233.341 43.4766C238.08 44.5703 242.319 46.2565 246.056 48.5352C249.838 50.8138 252.823 53.776 255.011 57.4219C257.244 61.0221 258.36 65.3516 258.36 70.4102C258.36 76.9727 256.104 82.6237 251.593 87.3633C254.783 89.6875 257.38 92.7637 259.386 96.5918C261.391 100.374 262.393 104.772 262.393 109.785C262.393 116.257 261.004 121.725 258.224 126.191C255.444 130.612 251.615 133.984 246.739 136.309C241.863 138.633 236.257 139.863 229.923 140L195.401 140.068H195.265C193.396 140.068 191.778 139.408 190.411 138.086C189.089 136.719 188.429 135.101 188.429 133.232L188.36 89.4141ZM244.688 70.8203C244.688 66.6732 243.276 63.5059 240.45 61.3184C237.67 59.0853 234.161 57.5586 229.923 56.7383C225.73 55.918 221.492 55.5078 217.208 55.5078C216.57 55.5078 215.909 55.5306 215.226 55.5762C214.542 55.5762 213.881 55.5762 213.243 55.5762L201.964 55.7812L202.032 82.0996L228.351 81.6895C231.13 81.6439 233.751 81.3249 236.212 80.7324C238.718 80.0944 240.746 79.0007 242.296 77.4512C243.891 75.8561 244.688 73.6458 244.688 70.8203ZM229.649 126.328C235.756 126.237 240.45 124.938 243.731 122.432C247.058 119.88 248.722 115.55 248.722 109.443C248.722 104.02 246.921 100.329 243.321 98.3691C239.721 96.3639 235.118 95.3613 229.513 95.3613H228.624L202.032 95.7715L202.101 126.26L229.649 126.328ZM310.108 65.1465C315.349 65.1465 320.226 66.1491 324.737 68.1543C329.295 70.1595 333.282 72.9395 336.7 76.4941C340.118 80.0488 342.784 84.1276 344.698 88.7305C346.658 93.3333 347.638 98.2324 347.638 103.428C347.638 108.532 346.658 113.385 344.698 117.988C342.739 122.546 340.027 126.579 336.563 130.088C333.145 133.551 329.158 136.286 324.601 138.291C320.089 140.296 315.258 141.299 310.108 141.299C305.004 141.299 300.173 140.319 295.616 138.359C291.104 136.4 287.117 133.688 283.653 130.225C280.235 126.761 277.546 122.751 275.587 118.193C273.627 113.59 272.647 108.669 272.647 103.428C272.647 98.2324 273.627 93.3333 275.587 88.7305C277.546 84.1276 280.235 80.0716 283.653 76.5625C287.117 73.0078 291.104 70.2279 295.616 68.2227C300.128 66.1719 304.959 65.1465 310.108 65.1465ZM286.456 103.564C286.456 107.985 287.527 112.018 289.669 115.664C291.856 119.264 294.75 122.135 298.351 124.277C301.951 126.419 305.893 127.49 310.177 127.49C314.552 127.49 318.517 126.396 322.071 124.209C325.671 121.976 328.52 119.036 330.616 115.391C332.758 111.745 333.829 107.757 333.829 103.428C333.829 99.0072 332.781 94.9512 330.685 91.2598C328.588 87.5228 325.74 84.5378 322.14 82.3047C318.585 80.0716 314.574 78.9551 310.108 78.9551C305.597 78.9551 301.563 80.0944 298.009 82.373C294.454 84.6061 291.629 87.5911 289.532 91.3281C287.481 95.0195 286.456 99.0983 286.456 103.564ZM391.866 65.1465C397.107 65.1465 401.983 66.1491 406.495 68.1543C411.052 70.1595 415.04 72.9395 418.458 76.4941C421.876 80.0488 424.542 84.1276 426.456 88.7305C428.416 93.3333 429.395 98.2324 429.395 103.428C429.395 108.532 428.416 113.385 426.456 117.988C424.496 122.546 421.785 126.579 418.321 130.088C414.903 133.551 410.916 136.286 406.358 138.291C401.847 140.296 397.016 141.299 391.866 141.299C386.762 141.299 381.931 140.319 377.374 138.359C372.862 136.4 368.875 133.688 365.411 130.225C361.993 126.761 359.304 122.751 357.345 118.193C355.385 113.59 354.405 108.669 354.405 103.428C354.405 98.2324 355.385 93.3333 357.345 88.7305C359.304 84.1276 361.993 80.0716 365.411 76.5625C368.875 73.0078 372.862 70.2279 377.374 68.2227C381.886 66.1719 386.716 65.1465 391.866 65.1465ZM368.214 103.564C368.214 107.985 369.285 112.018 371.427 115.664C373.614 119.264 376.508 122.135 380.108 124.277C383.709 126.419 387.651 127.49 391.935 127.49C396.31 127.49 400.274 126.396 403.829 124.209C407.429 121.976 410.278 119.036 412.374 115.391C414.516 111.745 415.587 107.757 415.587 103.428C415.587 99.0072 414.539 94.9512 412.442 91.2598C410.346 87.5228 407.498 84.5378 403.897 82.3047C400.343 80.0716 396.332 78.9551 391.866 78.9551C387.354 78.9551 383.321 80.0944 379.767 82.373C376.212 84.6061 373.386 87.5911 371.29 91.3281C369.239 95.0195 368.214 99.0983 368.214 103.564ZM439.239 47.168C439.239 45.2995 439.9 43.7044 441.222 42.3828C442.589 41.0156 444.207 40.332 446.075 40.332C447.944 40.332 449.539 41.0156 450.86 42.3828C452.227 43.7044 452.911 45.2995 452.911 47.168V96.0449L480.597 67.2656C481.873 65.8073 483.536 65.0781 485.587 65.0781C487.455 65.0781 489.05 65.7617 490.372 67.1289C491.739 68.4505 492.423 70.0456 492.423 71.9141C492.423 73.8281 491.762 75.446 490.44 76.7676L468.292 99.8047L491.602 130.43C492.56 131.615 493.038 133.027 493.038 134.668C493.038 136.536 492.354 138.154 490.987 139.521C489.666 140.843 488.071 141.504 486.202 141.504C485.245 141.504 484.242 141.208 483.194 140.615C482.146 140.068 481.326 139.43 480.733 138.701L458.722 109.717L452.911 115.732V134.463C452.911 136.331 452.227 137.949 450.86 139.316C449.539 140.638 447.944 141.299 446.075 141.299C444.207 141.299 442.589 140.638 441.222 139.316C439.9 137.949 439.239 136.331 439.239 134.463V47.168Z" fill="url(#paint0_linear_2_41)"/>
<path d="M534.532 41.7676H535.558C543.578 41.7676 550.619 43.1803 556.681 46.0059C562.742 48.7858 567.8 52.5684 571.856 57.3535C575.958 62.0931 579.034 67.4251 581.085 73.3496C583.181 79.2285 584.229 85.2441 584.229 91.3965C584.229 100.785 582.11 109.147 577.872 116.484C573.679 123.822 567.459 129.587 559.21 133.779C551.007 137.972 540.89 140.068 528.858 140.068H525.645L510.06 139.932C508.237 139.886 506.642 139.18 505.274 137.812C503.953 136.445 503.292 134.805 503.292 132.891L503.77 49.0137C503.77 47.1908 504.431 45.6185 505.753 44.2969C507.074 42.9297 508.647 42.2233 510.47 42.1777L534.532 41.7676ZM572.061 90.9863C572.061 82.5098 570.261 75.6738 566.661 70.4785C563.061 65.2832 558.002 61.5007 551.485 59.1309C544.968 56.7155 537.312 55.5078 528.517 55.5078C526.648 55.5078 524.78 55.5306 522.911 55.5762C521.088 55.6217 519.242 55.6901 517.374 55.7812L516.964 126.123L525.782 126.26C534.942 126.26 542.986 125.166 549.913 122.979C556.886 120.745 562.309 117.054 566.183 111.904C570.102 106.755 572.061 99.7819 572.061 90.9863ZM630.851 65.3516C636.912 65.3516 642.472 66.8555 647.53 69.8633C652.589 72.8711 656.645 76.9271 659.698 82.0312C662.797 87.0898 664.347 92.7181 664.347 98.916C664.347 100.192 664.278 101.491 664.142 102.812C663.959 104.499 663.185 105.934 661.817 107.119C660.496 108.258 658.992 108.828 657.306 108.828L609.522 108.896C610.297 112.178 611.755 115.254 613.897 118.125C616.039 120.996 618.637 123.32 621.69 125.098C624.789 126.875 628.162 127.764 631.808 127.764C635.727 127.764 639.236 126.807 642.335 124.893C645.434 122.979 647.849 120.768 649.581 118.262C650.128 117.396 650.948 116.667 652.042 116.074C653.181 115.482 654.252 115.186 655.255 115.186C657.123 115.186 658.718 115.869 660.04 117.236C661.407 118.604 662.091 120.221 662.091 122.09C662.091 123.548 661.681 124.847 660.86 125.986C658.035 130.133 654.138 133.734 649.171 136.787C644.249 139.795 638.53 141.299 632.013 141.299C626.772 141.299 621.895 140.273 617.384 138.223C612.918 136.172 609.021 133.369 605.694 129.814C602.367 126.26 599.77 122.181 597.901 117.578C596.078 112.93 595.167 108.031 595.167 102.881C595.167 97.9134 596.078 93.1966 597.901 88.7305C599.724 84.2188 602.254 80.2083 605.489 76.6992C608.77 73.1901 612.576 70.4329 616.905 68.4277C621.235 66.377 625.883 65.3516 630.851 65.3516ZM650.265 95.1562C649.399 90.6901 647.166 86.8848 643.565 83.7402C639.965 80.5957 635.727 79.0234 630.851 79.0234C625.883 79.0234 621.485 80.6413 617.657 83.877C613.875 87.1126 611.323 90.8952 610.001 95.2246L650.265 95.1562ZM674.942 47.168C674.942 45.2995 675.603 43.7044 676.925 42.3828C678.292 41.0156 679.91 40.332 681.778 40.332C683.647 40.332 685.242 41.0156 686.563 42.3828C687.931 43.7044 688.614 45.2995 688.614 47.168V96.0449L716.3 67.2656C717.576 65.8073 719.239 65.0781 721.29 65.0781C723.158 65.0781 724.754 65.7617 726.075 67.1289C727.442 68.4505 728.126 70.0456 728.126 71.9141C728.126 73.8281 727.465 75.446 726.143 76.7676L703.995 99.8047L727.306 130.43C728.263 131.615 728.741 133.027 728.741 134.668C728.741 136.536 728.058 138.154 726.69 139.521C725.369 140.843 723.774 141.504 721.905 141.504C720.948 141.504 719.946 141.208 718.897 140.615C717.849 140.068 717.029 139.43 716.436 138.701L694.425 109.717L688.614 115.732V134.463C688.614 136.331 687.931 137.949 686.563 139.316C685.242 140.638 683.647 141.299 681.778 141.299C679.91 141.299 678.292 140.638 676.925 139.316C675.603 137.949 674.942 136.331 674.942 134.463V47.168ZM738.653 46.8945C738.653 45.0716 739.314 43.5221 740.636 42.2461C741.957 40.9245 743.575 40.2637 745.489 40.2637C747.358 40.2637 748.953 40.9245 750.274 42.2461C751.642 43.5221 752.325 45.0716 752.325 46.8945V76.6992C754.057 73.0078 756.586 70.1823 759.913 68.2227C763.24 66.2174 766.453 65.2148 769.552 65.2148C776.707 65.2148 782.54 66.6732 787.052 69.5898C791.609 72.5065 794.959 76.5625 797.101 81.7578C799.242 86.9531 800.313 92.946 800.313 99.7363V100.352L800.245 134.873V134.941C800.245 136.764 799.561 138.337 798.194 139.658C796.873 140.934 795.278 141.572 793.409 141.572C791.541 141.572 789.923 140.934 788.556 139.658C787.234 138.337 786.573 136.764 786.573 134.941V134.873L786.642 100.693V100.557C786.642 93.5384 785.479 88.1836 783.155 84.4922C780.831 80.8008 776.296 78.9551 769.552 78.9551C763.855 78.9551 759.571 80.9375 756.7 84.9023C753.875 88.8672 752.462 93.9714 752.462 100.215V135.01C752.462 136.833 751.778 138.405 750.411 139.727C749.089 141.003 747.494 141.641 745.626 141.641C743.666 141.641 742.003 140.98 740.636 139.658C739.314 138.291 738.653 136.742 738.653 135.01V46.8945ZM847.686 65.1465C852.927 65.1465 857.804 66.1491 862.315 68.1543C866.873 70.1595 870.86 72.9395 874.278 76.4941C877.696 80.0488 880.362 84.1276 882.276 88.7305C884.236 93.3333 885.216 98.2324 885.216 103.428C885.216 108.532 884.236 113.385 882.276 117.988C880.317 122.546 877.605 126.579 874.142 130.088C870.724 133.551 866.736 136.286 862.179 138.291C857.667 140.296 852.836 141.299 847.686 141.299C842.582 141.299 837.752 140.319 833.194 138.359C828.683 136.4 824.695 133.688 821.231 130.225C817.813 126.761 815.125 122.751 813.165 118.193C811.205 113.59 810.226 108.669 810.226 103.428C810.226 98.2324 811.205 93.3333 813.165 88.7305C815.125 84.1276 817.813 80.0716 821.231 76.5625C824.695 73.0078 828.683 70.2279 833.194 68.2227C837.706 66.1719 842.537 65.1465 847.686 65.1465ZM824.034 103.564C824.034 107.985 825.105 112.018 827.247 115.664C829.435 119.264 832.328 122.135 835.929 124.277C839.529 126.419 843.471 127.49 847.755 127.49C852.13 127.49 856.095 126.396 859.649 124.209C863.25 121.976 866.098 119.036 868.194 115.391C870.336 111.745 871.407 107.757 871.407 103.428C871.407 99.0072 870.359 94.9512 868.263 91.2598C866.166 87.5228 863.318 84.5378 859.718 82.3047C856.163 80.0716 852.153 78.9551 847.686 78.9551C843.175 78.9551 839.142 80.0944 835.587 82.373C832.032 84.6061 829.207 87.5911 827.11 91.3281C825.06 95.0195 824.034 99.0983 824.034 103.564Z" fill="url(#paint1_linear_2_41)"/>
<defs>
<linearGradient id="paint0_linear_2_41" x1="181" y1="94.5" x2="506" y2="94.5" gradientUnits="userSpaceOnUse">
<stop stop-color="#1684E9"/>
<stop offset="1" stop-color="#0094D9"/>
</linearGradient>
<linearGradient id="paint1_linear_2_41" x1="502.5" y1="90" x2="899.5" y2="90" gradientUnits="userSpaceOnUse">
<stop stop-color="#FF7C1E"/>
<stop offset="1" stop-color="#E9B500"/>
</linearGradient>
<clipPath id="clip0_2_41">
<rect width="147.456" height="147.456" fill="white" transform="translate(20 20)"/>
</clipPath>
</defs>
</svg>
