<svg width="148" height="148" viewBox="0 0 148 148" fill="none" xmlns="http://www.w3.org/2000/svg">
<g clip-path="url(#clip0_2_21)">
<path d="M107.46 0H20.8923C10.9371 0 2.86679 8.0703 2.86679 18.0252V129.637C3.15059 120.175 11.4051 112.881 20.8704 112.881H110.045C111.349 112.881 112.405 113.938 112.405 115.242V4.9452C112.406 2.214 110.191 0 107.46 0Z" fill="#FCD462"/>
<path d="M23.8539 0H20.8926V115.753H23.8539V0Z" fill="#F6C358"/>
<path d="M20.1471 142.733C12.8046 142.733 6.91231 136.402 7.64341 128.912C8.28061 122.384 14.1489 117.602 20.7075 117.602H110.045C111.349 117.602 112.406 116.546 112.406 115.242C112.406 113.938 111.349 112.881 110.045 112.881H20.8704C11.4048 112.881 3.15061 120.175 2.86681 129.637C2.57311 139.427 10.422 147.456 20.1459 147.456H110.045C111.349 147.456 112.406 146.399 112.406 145.095V145.094C112.406 143.79 111.349 142.733 110.045 142.733H20.1471Z" fill="#DC8744"/>
<path d="M7.64338 128.912C6.91198 136.402 12.8043 142.734 20.1471 142.734H109.597C105.698 134.356 105.698 125.98 109.597 117.603H20.7075C14.1483 117.603 8.28028 122.385 7.64338 128.912Z" fill="#EBF0F3"/>
<path d="M15.3567 123.335H107.564C107.648 123.003 107.757 122.671 107.854 122.339H15.3567V123.335Z" fill="#E1E6E9"/>
<path d="M15.3567 127H106.86C106.899 126.668 106.983 126.335 107.034 126.004H15.3567V127Z" fill="#E1E6E9"/>
<path d="M15.3567 130.666H106.702C106.695 130.334 106.695 130.002 106.702 129.67H15.3567V130.666Z" fill="#E1E6E9"/>
<path d="M15.3567 134.332H107.034C106.983 134 106.9 133.669 106.86 133.337H15.3567V134.332Z" fill="#E1E6E9"/>
<path d="M15.3567 137.997H107.854C107.757 137.665 107.648 137.333 107.564 137.001H15.3567V137.997Z" fill="#E1E6E9"/>
<path opacity="0.5" d="M76.6711 79.1821C92.2591 81.9307 107.124 71.5223 109.872 55.9343C112.621 40.3463 102.213 25.4816 86.6246 22.733C71.0366 19.9844 56.1719 30.3928 53.4233 45.9808C50.6747 61.5688 61.0831 76.4335 76.6711 79.1821Z" fill="white"/>
<path opacity="0.5" d="M65.5834 65.1886C57.8236 54.1068 60.3724 38.9343 71.2753 31.2998C73.7084 29.5958 76.3566 28.4401 79.0815 27.7515C75.3092 28.1651 71.5845 29.5024 68.2569 31.8324C57.6936 39.2289 55.126 53.7887 62.5221 64.352C65.7974 69.0292 70.4787 72.1306 75.5938 73.5019C71.7129 71.7341 68.2186 68.952 65.5834 65.1886Z" fill="white"/>
<path d="M110.329 30.8776C99.2387 15.0379 77.407 11.1884 61.5676 22.2799C45.7282 33.3707 41.8784 55.2019 52.9691 71.042C63.19 85.6389 82.5214 90.0203 97.89 81.9438L100.431 85.5718L107.751 80.446L105.21 76.8177C118.056 65.1387 120.55 45.4742 110.329 30.8776ZM98.0888 74.4372C85.1225 83.5163 67.2513 80.3651 58.1722 67.3988C49.093 54.4325 52.2442 36.5613 65.2105 27.4822C78.1769 18.403 96.048 21.5542 105.127 34.5205C114.206 47.4869 111.055 65.358 98.0888 74.4372Z" fill="#3A556A"/>
<path d="M109.836 78.4287L97.8216 86.8408C97.1389 87.3188 96.9729 88.2601 97.4509 88.9428L128.682 133.546C130.856 136.65 145.342 126.507 143.169 123.402L111.937 78.7993C111.46 78.1166 110.519 77.9507 109.836 78.4287Z" fill="#27A2DB"/>
<path d="M127.381 131.692L141.868 121.549L140.146 119.089L125.659 129.233L127.381 131.692Z" fill="#EBF0F3"/>
<path d="M100.746 93.6233L115.233 83.4793L113.511 81.0196L99.024 91.1636L100.746 93.6233Z" fill="#EBF0F3"/>
</g>
<defs>
<clipPath id="clip0_2_21">
<rect width="147.456" height="147.456" fill="white"/>
</clipPath>
</defs>
</svg>
